<?xml version="1.0" encoding="UTF-8" standalone="no"?>
<!-- Created with Inkscape (http://www.inkscape.org/) -->
<svg
   xmlns:svg="http://www.w3.org/2000/svg"
   xmlns="http://www.w3.org/2000/svg"
   version="1.0"
   x="0.0000000"
   y="0.0000000"
   width="744.09448"
   height="1052.3622"
   id="svg2">
  <defs
     id="defs4" />
  <g
     id="layer1">
    <g
       id="g12291">
      <path
         d="M 358.64320,246.67590 C 358.64320,246.67590 -310.81627,959.41503 166.21933,725.14078 C 643.25491,490.86652 837.87374,842.89767 837.87374,842.89767 L 742.02761,702.82896 C 742.02761,702.82896 588.82210,393.39419 153.04963,654.48666 C -81.730189,794.99855 358.64320,246.67590 358.64320,246.67590 z "
         style="fill:#87b6d4;fill-opacity:1.0000000;fill-rule:evenodd;stroke:#000000;stroke-width:3.3545961px;stroke-linecap:butt;stroke-linejoin:miter;stroke-opacity:1.0000000"
         id="path1310" />
      <path
         d="M 255.48057,386.74461 C 255.48057,386.74461 143.05340,740.38978 264.26039,617.30025 C 518.14283,359.47457 309.62266,230.56179 255.48057,386.74461 z "
         style="fill:#87b6d4;fill-opacity:1.0000000;fill-rule:evenodd;stroke:#000000;stroke-width:3.3545961px;stroke-linecap:butt;stroke-linejoin:miter;stroke-opacity:1.0000000"
         id="path1314" />
      <path
         d="M 279.62503,376.82825 C 241.57925,513.17834 330.04214,406.25471 247.43244,568.95795 C 189.22773,683.59451 517.41117,261.55045 279.62503,376.82825 z "
         style="fill:#ffffff;fill-opacity:1.0000000;fill-rule:evenodd;stroke:#000000;stroke-width:3.3545961px;stroke-linecap:butt;stroke-linejoin:miter;stroke-opacity:1.0000000"
         id="path1332" />
      <path
         d="M 283.28327,611.10250 C 283.28327,611.10250 389.28559,523.64015 397.42064,407.81691 C 408.23808,253.80316 556.92025,546.64605 556.92025,546.64605 L 492.53507,529.29245 L 453.02601,415.25418 C 453.02601,415.25418 439.32051,486.44099 439.85632,487.14786 C 440.81644,488.41446 382.78764,502.02241 382.78764,502.02241 L 422.29672,516.89696 L 283.28327,611.10250 z "
         style="fill:#87b6d4;fill-opacity:1.0000000;fill-rule:evenodd;stroke:#000000;stroke-width:3.3545961px;stroke-linecap:butt;stroke-linejoin:miter;stroke-opacity:1.0000000"
         id="path3516" />
      <path
         d="M 500.58325,416.49375 C 582.52801,560.28111 598.62429,621.01887 598.62429,621.01887 C 598.62429,621.01887 650.57142,649.52843 640.32833,617.30021 C 630.08525,585.07202 501.31486,515.65743 666.66771,421.45193 C 721.62414,390.14190 289.86812,157.42854 500.58325,416.49375 z "
         style="fill:#87b6d4;fill-opacity:1.0000000;fill-rule:evenodd;stroke:#000000;stroke-width:3.3545961px;stroke-linecap:butt;stroke-linejoin:miter;stroke-opacity:1.0000000"
         id="path9365" />
      <path
         d="M 737.56860,333.09551 L 623.98088,330.87540 L 557.75740,423.18763 L 524.76831,314.47324 L 416.50998,280.01701 L 509.70932,215.04793 L 509.02548,101.44058 L 599.61492,170.00187 L 707.45062,134.24489 L 670.23863,241.58718 L 737.56860,333.09551 z "
         transform="matrix(0.542424,0.226034,-0.247024,0.496334,471.6352,123.4077)"
         style="fill:#c7cbd6;fill-opacity:1.0000000;fill-rule:evenodd;stroke:#87b6d4;stroke-width:10.997304;stroke-miterlimit:4.0000000;stroke-dasharray:none;stroke-opacity:1.0000000"
         id="path11563" />
      <path
         d="M 671.78926,596.22800 C 782.37645,664.98834 960.40646,876.62613 833.48383,733.81757 C 614.02958,486.89597 718.60775,484.61908 859.82322,449.96150 C 905.86154,438.66261 413.72545,436.10004 671.78926,596.22800 z "
         style="fill:#87b6d4;fill-opacity:1.0000000;fill-rule:evenodd;stroke:#000000;stroke-width:3.3545961px;stroke-linecap:butt;stroke-linejoin:miter;stroke-opacity:1.0000000"
         id="path10093" />
      <path
         d="M 794.31451,461.21675 C 701.26960,472.74188 674.30471,558.24916 708.77880,492.77325 C 720.64804,470.23027 761.42936,461.58590 794.31451,461.21675 z "
         style="fill:#c7cbd6;fill-opacity:1.0000000;fill-rule:evenodd;stroke:#000000;stroke-width:1.0000000px;stroke-linecap:butt;stroke-linejoin:miter;stroke-opacity:1.0000000"
         id="path10821" />
      <path
         d="M 95.174095,613.59576 C 44.857912,677.32662 125.92749,743.06117 58.589434,666.59640 C 46.670012,653.06147 72.263748,627.26464 95.174095,613.59576 z "
         style="fill:#c7cbd6;fill-opacity:1.0000000;fill-rule:evenodd;stroke:#000000;stroke-width:1.0000000px;stroke-linecap:butt;stroke-linejoin:miter;stroke-opacity:1.0000000"
         id="path11549" />
      <path
         d="M 667.20972,412.83390 C 591.41788,431.91950 576.98657,508.17869 592.89447,441.76342 C 598.84991,416.89952 634.32457,413.20305 667.20972,412.83390 z "
         style="fill:#c7cbd6;fill-opacity:1.0000000;fill-rule:evenodd;stroke:#000000;stroke-width:1.0000000px;stroke-linecap:butt;stroke-linejoin:miter;stroke-opacity:1.0000000"
         id="path11551" />
      <path
         d="M 380.80151,410.39553 C 384.12305,371.45757 343.16508,315.53528 366.80248,348.42182 C 377.11888,362.77495 386.88317,378.72751 380.80151,410.39553 z "
         style="fill:#c7cbd6;fill-opacity:1.0000000;fill-rule:evenodd;stroke:#000000;stroke-width:1.0000000px;stroke-linecap:butt;stroke-linejoin:miter;stroke-opacity:1.0000000"
         id="path11553" />
      <path
         d="M 544.76474,540.19783 C 511.02689,495.46287 481.04181,438.71244 504.67921,471.59898 C 514.99561,485.95211 537.18204,509.15092 544.76474,540.19783 z "
         style="fill:#c7cbd6;fill-opacity:1.0000000;fill-rule:evenodd;stroke:#000000;stroke-width:1.0000000px;stroke-linecap:butt;stroke-linejoin:miter;stroke-opacity:1.0000000"
         id="path11555" />
      <path
         d="M 747.95511,728.32559 C 705.14707,692.17409 663.33736,643.47436 693.67156,670.30880 C 706.91074,682.02053 733.68432,699.72922 747.95511,728.32559 z "
         style="fill:#c7cbd6;fill-opacity:1.0000000;fill-rule:evenodd;stroke:#000000;stroke-width:1.0000000px;stroke-linecap:butt;stroke-linejoin:miter;stroke-opacity:1.0000000"
         id="path11557" />
      <text
         x="378.85037"
         y="644.2287"
         style="font-size:12.000000px;font-style:normal;font-weight:normal;line-height:125.00000%;fill:#000000;fill-opacity:1.0000000;stroke:none;stroke-width:1.0000000px;stroke-linecap:butt;stroke-linejoin:miter;stroke-opacity:1.0000000;font-family:Bitstream Vera Sans"
         id="text11559"
         xml:space="preserve"><tspan
           x="378.85037"
           y="644.2287"
           style="font-size:144.00000px;font-style:normal;font-variant:normal;font-weight:bold;font-stretch:normal;text-align:start;line-height:125.00000%;writing-mode:lr-tb;text-anchor:start;font-family:Andy MT"
           id="tspan11561">DB</tspan></text>
    </g>
  </g>
</svg>
